<svg xmlns="http://www.w3.org/2000/svg" width="12" height="24" viewBox="0 0 12 24"><svg width="12" height="12" id="1" y="0"><path xmlns="http://www.w3.org/2000/svg" xmlns:m="urn:m" xmlns:b="urn:b" opacity=".35" d="m11.897 4.322h-4.543l-1.405-4.322-1.404 4.322h-4.545l3.677 2.671-1.404 4.323 3.676-2.672 3.677 2.672-1.404-4.323 3.675-2.671zm-5.949 3.351l-2.278 1.655 0.87-2.679-2.278-1.654h2.816l0.87-2.677 0.871 2.677h2.814l-2.277 1.654 0.871 2.679-2.279-1.655z"/></svg><svg width="12" height="12" id="2" y="12"><polygon xmlns:m="urn:m" xmlns="http://www.w3.org/2000/svg" xmlns:b="urn:b" points="5.949 0 7.354 4.322 11.897 4.322 8.222 6.993 9.626 11.315 5.949 8.644 2.273 11.315 3.677 6.993 0 4.322 4.544 4.322" fill="#f2c200"/></svg></svg>
