<svg xmlns="http://www.w3.org/2000/svg" width="16" height="16"><path d="M43.417,15.167c-3.866,0-7,3.134-7,7s3.134,7,7,7s7-3.134,7-7 S47.283,15.167,43.417,15.167z M47.591,25.148l-1.192,1.192l-2.981-2.981l-2.981,2.981l-1.192-1.192l2.981-2.981l-2.981-2.981 l1.192-1.192l2.981,2.981l2.981-2.981l1.192,1.192l-2.981,2.981L47.591,25.148z"/><path fill="#fff" d="M8,0c4.418,0,8,3.582,8,8c0,4.419-3.582,8-8,8s-8-3.581-8-8 C0,3.582,3.582,0,8,0z"/><path d="M8,1C4.134,1,1,4.134,1,8s3.134,7,7,7s7-3.134,7-7S11.866,1,8,1z M11.99,10.564 l-1.426,1.426L8,9.426L5.436,11.99L4.01,10.564L6.574,8L4.01,5.436L5.436,4.01L8,6.574l2.564-2.564l1.426,1.426L9.426,8 L11.99,10.564z"/></svg>
